<svg width="20" height="20" viewBox="0 0 20 20" fill="none" xmlns="http://www.w3.org/2000/svg">
<g clip-path="url(#clip0_127_12)">
<path d="M12.4854 17.0652V4.29696C12.4854 3.87367 12.3173 3.46771 12.018 3.16839C11.7187 2.86908 11.3127 2.70093 10.8894 2.70093H7.69735C7.27406 2.70093 6.8681 2.86908 6.56879 3.16839C6.26947 3.46771 6.10132 3.87367 6.10132 4.29696V17.0652" stroke="black" stroke-width="1.25" stroke-linecap="round" stroke-linejoin="round"/>
<path d="M15.6775 5.89307H2.90927C2.0278 5.89307 1.31323 6.60763 1.31323 7.4891V15.4693C1.31323 16.3507 2.0278 17.0653 2.90927 17.0653H15.6775C16.559 17.0653 17.2736 16.3507 17.2736 15.4693V7.4891C17.2736 6.60763 16.559 5.89307 15.6775 5.89307Z" stroke="black" stroke-width="1.25" stroke-linecap="round" stroke-linejoin="round"/>
</g>
<defs>
<clipPath id="clip0_127_12">
<rect width="19.1524" height="19.1524" fill="white" transform="translate(0.036377 0.147217)"/>
</clipPath>
</defs>
</svg>
