<?xml version="1.0" encoding="UTF-8" standalone="no"?>
<!-- Created with Inkscape (http://www.inkscape.org/) -->

<svg
   width="149.94925mm"
   height="202.85011mm"
   viewBox="0 0 149.94925 202.85011"
   version="1.1"
   id="svg1"
   xml:space="preserve"
   sodipodi:docname="ic logo.svg"
   inkscape:version="1.4.2 (f4327f4, 2025-05-13)"
   xmlns:inkscape="http://www.inkscape.org/namespaces/inkscape"
   xmlns:sodipodi="http://sodipodi.sourceforge.net/DTD/sodipodi-0.dtd"
   xmlns="http://www.w3.org/2000/svg"
   xmlns:svg="http://www.w3.org/2000/svg"><sodipodi:namedview
     id="namedview1"
     pagecolor="#ffffff"
     bordercolor="#000000"
     borderopacity="0.25"
     inkscape:showpageshadow="2"
     inkscape:pageopacity="0.0"
     inkscape:pagecheckerboard="0"
     inkscape:deskcolor="#d1d1d1"
     inkscape:document-units="mm"
     inkscape:zoom="0.97548401"
     inkscape:cx="277.81081"
     inkscape:cy="239.36835"
     inkscape:window-width="2560"
     inkscape:window-height="1334"
     inkscape:window-x="-11"
     inkscape:window-y="-11"
     inkscape:window-maximized="1"
     inkscape:current-layer="layer1" /><defs
     id="defs1" /><g
     inkscape:label="Layer 1"
     inkscape:groupmode="layer"
     id="layer1"
     transform="translate(-24.779982,-52.68783)"><g
       id="g1"
       style="display:inline"
       transform="matrix(3.4705791,0,0,3.4705791,-230.69208,-273.90658)"><path
         style="fill:#f27425"
         d="m 82.951813,151.29172 c -0.613023,-0.082 -0.689429,-0.27948 -0.689429,-1.78187 0,-1.13593 0,-1.13593 0.308429,-0.88637 0.826583,0.66881 2.801708,1.75017 4.755061,2.60334 0.21274,0.0929 0.01233,0.10373 -1.923143,0.10373 -1.188348,0 -2.291261,-0.0175 -2.450918,-0.0388 z m 9.688285,-9.32441 c -0.425814,-0.10899 -2.333007,-1.07883 -3.120571,-1.58687 -1.337575,-0.86284 -2.649764,-1.99953 -3.615802,-3.13222 -1.100473,-1.29031 -2.12327,-3.1108 -2.594788,-4.6185 -0.627803,-2.00741 -0.735244,-2.4979 -0.879276,-4.01403 -0.119024,-1.25289 -0.130991,-2.29935 -0.130991,-11.45441 0,-10.07556 0,-10.07556 0.203618,-10.25072 0.203618,-0.17516 0.203618,-0.17516 5.103725,-0.17516 4.900107,0 4.900107,0 5.106023,0.20592 0.137752,0.13775 0.220914,0.31192 0.251224,0.52614 0.02492,0.17613 0.03588,8.02945 0.02436,17.45183 -0.02095,17.1316 -0.02095,17.1316 -0.34752,17.04802 z m -6.132285,-36.86242 c -2.279658,-0.49721 -3.927975,-2.40024 -4.142365,-4.78248 -0.08987,-0.998601 0.240596,-2.320805 0.802424,-3.210528 0.597787,-0.946669 1.590176,-1.735562 2.691699,-2.139749 0.621705,-0.228125 0.692805,-0.238055 1.736813,-0.242581 1.012014,-0.0044 1.133747,0.01008 1.730919,0.205728 1.584087,0.51898 2.897668,1.87928 3.369924,3.489779 0.754964,2.574601 -0.470659,5.243931 -2.917065,6.353181 -0.894219,0.40546 -2.27781,0.54357 -3.272349,0.32665 z"
         id="path2" /><path
         style="fill:#1932a1"
         d="m 95.978384,151.80627 c -1.758271,-0.17648 -4.447973,-0.76246 -5.829035,-1.26992 -0.366359,-0.13461 -0.960022,-0.34993 -1.319251,-0.47848 -0.592203,-0.21191 -2.804015,-1.25613 -3.338285,-1.57603 -0.119743,-0.0717 -0.381,-0.22541 -0.580572,-0.34159 -0.199571,-0.11619 -0.771071,-0.49006 -1.27,-0.83083 -3.988174,-2.72397 -7.046099,-6.677 -8.447787,-10.92059 -0.613763,-1.85816 -0.819982,-2.84045 -0.984357,-4.68885 -0.185048,-2.08087 0.03633,-4.75032 0.540247,-6.51464 0.498749,-1.74621 0.79738,-2.54663 1.413279,-3.78801 1.073531,-2.16378 2.457973,-4.12134 3.95228,-5.5884 0.478338,-0.46962 0.478338,-0.46962 0.483582,-0.10886 0.0029,0.19842 0.0355,3.13662 0.07248,6.52933 0.03698,3.39272 0.0989,6.4135 0.137599,6.71286 0.0387,0.29936 0.10267,0.87771 0.142162,1.28522 0.136268,1.40615 0.874076,3.59331 1.855417,5.50021 2.476265,4.81176 7.754444,8.14591 13.970523,8.82498 0.459014,0.0501 1.471385,0.089 2.249714,0.0864 4.37926,-0.0148 8.23847,-1.25465 11.62031,-3.73313 0.38968,-0.28559 0.53678,-0.35222 0.77762,-0.35222 0.34388,0 0.3239,-0.0153 1.93493,1.48176 2.80039,2.60229 3.0069,2.80932 3.05432,3.0621 0.0681,0.36291 -0.13978,0.67395 -0.79578,1.1908 -2.17603,1.71446 -4.566,3.03841 -7.26015,4.02185 -1.38183,0.5044 -2.37909,0.77408 -4.46896,1.20849 -1.91098,0.39723 -5.513178,0.52818 -7.91029,0.28758 z M 111.07522,119.5271 c -0.0588,-0.0231 -0.34165,-0.21561 -0.62858,-0.42781 -0.65559,-0.48484 -2.11289,-1.37043 -2.63911,-1.60379 -0.21953,-0.0974 -0.49712,-0.22072 -0.61686,-0.27416 -1.25766,-0.56124 -1.96797,-0.79821 -3.56726,-1.1901 -2.73539,-0.67029 -5.74148,-0.73215 -8.716124,-0.17938 -0.236527,0.0439 -0.236527,0.0439 -0.217714,-3.64486 0.01881,-3.6888 0.01881,-3.6888 0.671955,-3.7753 2.573071,-0.34077 4.930973,-0.31304 7.728853,0.0909 1.86694,0.26953 3.16684,0.58754 5.08,1.24276 1.52418,0.52199 3.78595,1.59701 5.04372,2.39726 0.93247,0.59328 1.08391,0.69814 1.92817,1.33515 1.03852,0.78357 1.21345,0.95664 1.26963,1.25609 0.0576,0.30711 -0.0797,0.5639 -0.52542,0.98294 -2.69606,2.53446 -3.64963,3.41057 -3.92685,3.60789 -0.31822,0.2265 -0.61591,0.2879 -0.88441,0.18241 z"
         id="path1" /></g></g></svg>
