<svg width="884" height="983" viewBox="0 0 884 983" fill="none" xmlns="http://www.w3.org/2000/svg">
<path d="M221.46 829.629C227.165 826.723 232.387 828.219 234.546 829.07C236.686 829.914 238.3 831.07 238.923 831.521C239.688 832.074 240.471 832.703 240.929 833.068C251.024 841.119 277.517 855.605 304.983 867.429C305.218 867.53 307.36 868.392 309.356 870.02C310.014 870.556 313.775 873.561 314.778 879.195C316.175 887.048 311.39 892.194 308.738 894.12C306.452 895.78 304.243 896.398 303.56 896.585C302.576 896.855 301.703 897.001 301.126 897.084C299.957 897.252 298.726 897.34 297.636 897.398C293.366 897.625 285.275 897.658 271.763 897.658C263.267 897.658 255.059 897.596 248.664 897.496C242.917 897.406 237.259 897.28 235.028 896.986H235.023C232.501 896.654 228.375 895.994 224.407 893.752C219.694 891.09 216.632 887.082 214.867 882.585C213.346 878.712 212.814 874.544 212.545 870.89C212.264 867.061 212.2 862.469 212.2 857.192C212.2 853.329 212.198 850.065 212.276 847.592C212.331 845.845 212.421 842.078 213.602 838.733C214.225 836.968 216.159 832.329 221.46 829.629ZM302.828 76.0088C309.765 75.9791 314.76 75.9885 319.126 76.5C323.965 77.0669 327.696 78.2006 332.065 79.6113C359.219 88.3798 381.534 111.125 389.654 138.418C402.266 180.81 382.382 224.719 342.741 243.971C353.022 244.016 360.017 244.108 364.833 244.3C369.277 244.476 373.298 244.764 376.627 245.664C378.627 246.205 380.681 247.033 382.679 248.358C384.483 249.555 385.781 250.893 386.016 251.125L386.435 251.547C390.703 255.939 393.08 261.331 393.899 267.036H393.9C394.088 268.35 394.104 270.182 394.112 270.55C394.134 271.599 394.155 273.03 394.174 274.795C394.212 278.337 394.247 283.38 394.278 289.74C394.34 302.469 394.387 320.569 394.418 342.695C394.481 386.953 394.479 447.373 394.397 513.275C394.248 632.968 394.175 693.086 393.555 723.081C393.254 737.621 392.823 746.323 391.904 751.336C391.652 752.71 391.254 754.459 390.537 756.246C389.857 757.941 388.417 760.884 385.38 763.319C381.861 766.142 377.958 766.91 374.945 766.843C373.637 766.813 372.579 766.632 371.967 766.511C371.388 766.396 370.866 766.261 370.797 766.243H370.796C367.812 765.49 363.816 763.792 360.432 762.274C356.618 760.564 352.117 758.404 347.529 756.104C338.481 751.57 328.377 746.131 322.135 742.162C302.014 729.369 282.26 712.534 267.53 695.511C250.686 676.046 235.108 648.814 227.753 625.636C218.637 596.904 216.818 588.966 214.643 566.396C212.864 547.943 212.714 532.271 212.714 404.75C212.714 334.405 212.713 298.953 213.078 280.835C213.255 272.06 213.523 266.378 214.12 262.633C214.428 260.707 215.001 258.01 216.466 255.309C218.191 252.129 220.452 250.319 220.904 249.937C221.155 249.723 222.476 248.556 224.28 247.53C226.223 246.425 228.16 245.768 229.988 245.346C233.074 244.633 236.874 244.393 241.317 244.243C246.24 244.077 253.469 243.999 264.224 243.962C236.018 230.497 216.693 203.112 213.724 170.597C212.129 153.123 217.751 131.327 227.418 116.237L227.91 115.48C238.313 99.647 254.89 86.8978 273.145 80.2959C277.506 78.7186 281.32 77.3542 286.277 76.6719C290.691 76.0642 295.787 76.0389 302.828 76.0088ZM378.122 737.143C378.156 737.154 378.179 737.162 378.191 737.166C378.741 737.301 378.657 737.219 378.124 737.103C378.124 737.116 378.123 737.129 378.122 737.143Z" fill="#F27425" stroke="white" stroke-width="30"/>
<path d="M199.426 366.074C203.682 365.13 209.635 365.814 214.107 370.576C217.267 373.941 217.989 377.728 218.17 378.67C218.599 380.905 218.578 383.529 218.586 384.09C218.628 386.903 219.091 428.047 219.615 475.469C219.877 499.157 220.227 521.533 220.58 538.492C220.757 546.977 220.933 554.072 221.099 559.285C221.181 561.897 221.26 563.99 221.332 565.528C221.416 567.322 221.469 567.786 221.441 567.573C222.018 571.966 222.944 580.224 223.515 586.032C225.189 603.057 234.759 631.719 248.213 657.486C280.613 719.539 350.573 763.879 434.771 772.945H434.771C440.49 773.561 454.23 774.103 465.041 774.067C524.215 773.87 575.89 757.428 621.207 724.694C624.005 722.673 627.001 720.617 630.185 719.196C634.037 717.476 637.55 716.928 641.025 716.928C641.748 716.928 644.971 716.798 648.496 717.862C652.02 718.927 654.825 720.788 657.048 722.466C661.183 725.587 667.578 731.483 678.614 741.591C698.368 759.683 709.307 769.751 715.347 775.72C720.58 780.891 725.216 785.614 726.561 792.675C727.88 799.606 726.158 805.946 722.448 811.418C719.275 816.099 714.624 820.185 709.733 823.982C678.062 848.577 643.345 867.63 604.44 881.829L602.585 882.501C582.075 889.88 567.175 893.823 537.101 899.984C508.208 905.904 455.539 907.718 420.361 904.238C394.818 901.711 356.22 893.512 335.01 886.01L334.013 885.653C328.852 883.785 320.467 880.787 315.41 879.003V879.004C310.403 877.238 299.786 872.52 290.077 868.002C280.982 863.77 271.241 859.042 266.321 856.262L265.403 855.732C264.592 855.253 263.274 854.485 261.808 853.635L257.323 851.047C254.385 849.361 247.493 844.929 241.091 840.667L238.39 838.859C179.316 799.091 133.702 741.214 112.665 678.441C103.605 651.407 100.423 636.522 97.9795 609.443C95.2087 578.734 98.4413 539.5 106.178 512.803C113.438 487.748 117.984 475.646 127.242 457.253C143.122 425.706 163.717 396.903 186.295 375.056C187.878 373.524 189.445 372.002 190.717 370.878C191.357 370.312 192.253 369.549 193.28 368.832C194.03 368.309 196.264 366.776 199.426 366.074ZM411.143 267.779C449.116 262.823 483.946 263.25 524.875 269.074C552.342 272.983 571.687 277.656 599.647 287.095C622.297 294.74 655.47 310.262 674.393 322.128C687.946 330.627 690.423 332.317 702.736 341.474L705.325 343.405C711.154 347.772 715.498 351.174 718.493 354.094C722.578 358.077 725.265 362.222 726.43 367.735L726.537 368.273L726.538 368.274C727.615 373.934 726.706 379.412 723.938 384.517C721.71 388.623 718.456 392.141 715.193 395.219L714.541 395.829C695.414 413.551 682.408 425.53 673.681 433.434C665.32 441.005 660.149 445.524 657.236 447.567C650.204 452.501 640.686 455.712 630.654 451.827C628.923 451.157 627.322 450.136 627.015 449.946C626.238 449.467 625.36 448.894 624.469 448.296C622.668 447.088 620.485 445.559 618.315 443.978C609.563 437.598 589.847 425.859 583.693 423.169L583.691 423.168C580.577 421.806 576.623 420.075 574.907 419.32V419.319C558.014 411.889 548.799 408.837 526.804 403.525C490.176 394.679 449.645 393.809 409.341 401.19H409.338C409.246 401.207 408.533 401.345 407.757 401.434C406.944 401.527 405.429 401.652 403.583 401.41C398.784 400.782 394.681 398.091 392.125 394.158C390.236 391.252 389.618 388.299 389.356 386.858C389.041 385.122 388.873 383.255 388.763 381.431C388.338 374.418 388.417 360.791 388.549 335.379C388.615 322.547 388.666 312.694 388.853 305.234C389.034 297.988 389.355 292.061 390.18 287.496C390.963 283.157 392.746 276.621 398.748 272.14C403.854 268.328 410.099 267.915 411.143 267.779Z" fill="#1932A1" stroke="white" stroke-width="30"/>
</svg>
