<svg width="24" height="25" viewBox="0 0 24 25" fill="none" xmlns="http://www.w3.org/2000/svg">
<g clip-path="url(#clip0_127_16)">
<path d="M16.2875 12.9669C18.3074 12.9669 19.9534 11.1677 19.9534 8.9785C19.9534 6.81423 18.3158 5.09985 16.2875 5.09985C14.276 5.09985 12.6211 6.83955 12.6211 8.99539C12.6295 11.1761 14.276 12.9669 16.2875 12.9669ZM6.51107 13.1534C8.2592 13.1534 9.69334 11.5834 9.69334 9.65716C9.69334 7.77313 8.27609 6.25416 6.51107 6.25416C4.76293 6.25416 3.32036 7.79887 3.3288 9.67405C3.33724 11.5923 4.76293 13.1534 6.51107 13.1534ZM16.2875 11.6855C15.0483 11.6855 13.9873 10.4975 13.9873 8.99539C13.9873 7.51821 15.0314 6.38162 16.2875 6.38162C17.5519 6.38162 18.5872 7.50175 18.5872 8.97808C18.5872 10.4806 17.5435 11.6855 16.2875 11.6855ZM6.51107 11.889C5.47578 11.889 4.59327 10.8963 4.59327 9.67405C4.59327 8.47753 5.46691 7.51863 6.51107 7.51863C7.58012 7.51863 8.43731 8.46065 8.43731 9.65716C8.43731 10.8963 7.5548 11.889 6.51107 11.889ZM1.79253 20.9356H8.45461C8.04691 20.7065 7.73291 20.1971 7.79242 19.6796H1.58066C1.411 19.6796 1.32617 19.6121 1.32617 19.4504C1.32617 17.3461 3.72764 15.3772 6.50305 15.3772C7.5721 15.3772 8.531 15.6317 9.35443 16.1154C9.62757 15.7696 9.95076 15.4665 10.3133 15.216C9.21853 14.4943 7.90342 14.1212 6.50305 14.1212C2.94684 14.1212 0.0612793 16.7008 0.0612793 19.5268C0.0612793 20.4689 0.638224 20.9356 1.79253 20.9356ZM10.9578 20.9356H21.6171C23.0255 20.9356 23.6962 20.5115 23.6962 19.5779C23.6962 17.3545 20.887 14.1377 16.2875 14.1377C11.6791 14.1377 8.87033 17.3545 8.87033 19.5779C8.87033 20.5115 9.54055 20.9356 10.9578 20.9356ZM10.5505 19.6543C10.3298 19.6543 10.2365 19.5952 10.2365 19.4167C10.2365 18.0248 12.3919 15.4199 16.2875 15.4199C20.1746 15.4199 22.3296 18.0248 22.3296 19.4167C22.3296 19.5948 22.2451 19.6543 22.024 19.6543H10.5505Z" fill="white"/>
</g>
<defs>
<clipPath id="clip0_127_16">
<rect width="23.6349" height="23.6349" fill="white" transform="translate(0.0612793 0.629395)"/>
</clipPath>
</defs>
</svg>
